<?xml version="1.0" encoding="utf-8" standalone="no"?>
<!DOCTYPE svg PUBLIC "-//W3C//DTD SVG 1.1//EN"
  "http://www.w3.org/Graphics/SVG/1.1/DTD/svg11.dtd">
<svg xmlns:xlink="http://www.w3.org/1999/xlink" width="460.8pt" height="345.6pt" viewBox="0 0 460.8 345.6" xmlns="http://www.w3.org/2000/svg" version="1.1">
 <metadata>
  <rdf:RDF xmlns:dc="http://purl.org/dc/elements/1.1/" xmlns:cc="http://creativecommons.org/ns#" xmlns:rdf="http://www.w3.org/1999/02/22-rdf-syntax-ns#">
   <cc:Work>
    <dc:type rdf:resource="http://purl.org/dc/dcmitype/StillImage"/>
    <dc:date>2026-01-06T11:22:23.337817</dc:date>
    <dc:format>image/svg+xml</dc:format>
    <dc:creator>
     <cc:Agent>
      <dc:title>Matplotlib v3.10.0, https://matplotlib.org/</dc:title>
     </cc:Agent>
    </dc:creator>
   </cc:Work>
  </rdf:RDF>
 </metadata>
 <defs>
  <style type="text/css">*{stroke-linejoin: round; stroke-linecap: butt}</style>
 </defs>
 <g id="figure_1">
  <g id="patch_1">
   <path d="M 0 345.6 
L 460.8 345.6 
L 460.8 0 
L 0 0 
z
" style="fill: #ffffff"/>
  </g>
  <g id="axes_1">
   <g id="LineCollection_1">
    <path d="M 87.590083 315.609917 
L 39.986777 220.403306 
" clip-path="url(#pc3161cc200)" style="fill: none; stroke: #d0d0d0"/>
    <path d="M 135.193388 315.609917 
L 182.796694 315.609917 
" clip-path="url(#pc3161cc200)" style="fill: none; stroke: #d0d0d0"/>
    <path d="M 135.193388 315.609917 
L 182.796694 125.196694 
" clip-path="url(#pc3161cc200)" style="fill: none; stroke: #d0d0d0"/>
    <path d="M 182.796694 315.609917 
L 182.796694 220.403306 
" clip-path="url(#pc3161cc200)" style="fill: none; stroke: #d0d0d0"/>
    <path d="M 230.4 315.609917 
L 278.003306 315.609917 
" clip-path="url(#pc3161cc200)" style="fill: none; stroke: #d0d0d0"/>
    <path d="M 230.4 315.609917 
L 325.606612 220.403306 
" clip-path="url(#pc3161cc200)" style="fill: none; stroke: #d0d0d0"/>
    <path d="M 325.606612 315.609917 
L 373.209917 315.609917 
" clip-path="url(#pc3161cc200)" style="fill: none; stroke: #d0d0d0"/>
    <path d="M 325.606612 315.609917 
L 373.209917 220.403306 
" clip-path="url(#pc3161cc200)" style="fill: none; stroke: #d0d0d0"/>
    <path d="M 373.209917 315.609917 
L 420.813223 220.403306 
" clip-path="url(#pc3161cc200)" style="fill: none; stroke: #d0d0d0"/>
    <path d="M 39.986777 220.403306 
L 87.590083 220.403306 
" clip-path="url(#pc3161cc200)" style="fill: none; stroke: #d0d0d0"/>
    <path d="M 39.986777 220.403306 
L 420.813223 220.403306 
" clip-path="url(#pc3161cc200)" style="fill: none; stroke: #d0d0d0"/>
    <path d="M 39.986777 220.403306 
L 87.590083 125.196694 
" clip-path="url(#pc3161cc200)" style="fill: none; stroke: #d0d0d0"/>
    <path d="M 87.590083 220.403306 
L 135.193388 125.196694 
" clip-path="url(#pc3161cc200)" style="fill: none; stroke: #d0d0d0"/>
    <path d="M 135.193388 220.403306 
L 182.796694 220.403306 
" clip-path="url(#pc3161cc200)" style="fill: none; stroke: #d0d0d0"/>
    <path d="M 182.796694 220.403306 
L 325.606612 220.403306 
" clip-path="url(#pc3161cc200)" style="fill: none; stroke: #d0d0d0"/>
    <path d="M 182.796694 220.403306 
L 230.4 125.196694 
" clip-path="url(#pc3161cc200)" style="fill: none; stroke: #d0d0d0"/>
    <path d="M 230.4 220.403306 
L 278.003306 220.403306 
" clip-path="url(#pc3161cc200)" style="fill: none; stroke: #d0d0d0"/>
    <path d="M 278.003306 220.403306 
L 325.606612 220.403306 
" clip-path="url(#pc3161cc200)" style="fill: none; stroke: #d0d0d0"/>
    <path d="M 325.606612 220.403306 
L 373.209917 220.403306 
" clip-path="url(#pc3161cc200)" style="fill: none; stroke: #d0d0d0"/>
    <path d="M 325.606612 220.403306 
L 278.003306 125.196694 
" clip-path="url(#pc3161cc200)" style="fill: none; stroke: #d0d0d0"/>
    <path d="M 373.209917 220.403306 
L 420.813223 220.403306 
" clip-path="url(#pc3161cc200)" style="fill: none; stroke: #d0d0d0"/>
    <path d="M 373.209917 220.403306 
L 325.606612 125.196694 
" clip-path="url(#pc3161cc200)" style="fill: none; stroke: #d0d0d0"/>
    <path d="M 420.813223 220.403306 
L 373.209917 125.196694 
" clip-path="url(#pc3161cc200)" style="fill: none; stroke: #d0d0d0"/>
    <path d="M 87.590083 125.196694 
L 135.193388 125.196694 
" clip-path="url(#pc3161cc200)" style="fill: none; stroke: #d0d0d0"/>
    <path d="M 87.590083 125.196694 
L 373.209917 125.196694 
" clip-path="url(#pc3161cc200)" style="fill: none; stroke: #d0d0d0"/>
    <path d="M 87.590083 125.196694 
L 135.193388 29.990083 
" clip-path="url(#pc3161cc200)" style="fill: none; stroke: #d0d0d0"/>
    <path d="M 135.193388 125.196694 
L 182.796694 125.196694 
" clip-path="url(#pc3161cc200)" style="fill: none; stroke: #d0d0d0"/>
    <path d="M 182.796694 125.196694 
L 230.4 125.196694 
" clip-path="url(#pc3161cc200)" style="fill: none; stroke: #d0d0d0"/>
    <path d="M 182.796694 125.196694 
L 182.796694 29.990083 
" clip-path="url(#pc3161cc200)" style="fill: none; stroke: #d0d0d0"/>
    <path d="M 230.4 125.196694 
L 278.003306 125.196694 
" clip-path="url(#pc3161cc200)" style="fill: none; stroke: #d0d0d0"/>
    <path d="M 230.4 125.196694 
L 230.4 29.990083 
" clip-path="url(#pc3161cc200)" style="fill: none; stroke: #d0d0d0"/>
    <path d="M 278.003306 125.196694 
L 325.606612 125.196694 
" clip-path="url(#pc3161cc200)" style="fill: none; stroke: #d0d0d0"/>
    <path d="M 278.003306 125.196694 
L 278.003306 29.990083 
" clip-path="url(#pc3161cc200)" style="fill: none; stroke: #d0d0d0"/>
    <path d="M 325.606612 125.196694 
L 373.209917 125.196694 
" clip-path="url(#pc3161cc200)" style="fill: none; stroke: #d0d0d0"/>
    <path d="M 135.193388 29.990083 
L 182.796694 29.990083 
" clip-path="url(#pc3161cc200)" style="fill: none; stroke: #d0d0d0"/>
    <path d="M 182.796694 29.990083 
L 230.4 29.990083 
" clip-path="url(#pc3161cc200)" style="fill: none; stroke: #d0d0d0"/>
    <path d="M 230.4 29.990083 
L 278.003306 29.990083 
" clip-path="url(#pc3161cc200)" style="fill: none; stroke: #d0d0d0"/>
    <path d="M 278.003306 29.990083 
L 325.606612 29.990083 
" clip-path="url(#pc3161cc200)" style="fill: none; stroke: #d0d0d0"/>
   </g>
   <g id="LineCollection_2">
    <path d="M 87.590083 315.609917 
L 39.986777 220.403306 
" clip-path="url(#pc3161cc200)" style="fill: none; stroke: #d3d3d3"/>
    <path d="M 135.193388 315.609917 
L 182.796694 125.196694 
" clip-path="url(#pc3161cc200)" style="fill: none; stroke: #d3d3d3"/>
    <path d="M 182.796694 315.609917 
L 182.796694 220.403306 
" clip-path="url(#pc3161cc200)" style="fill: none; stroke: #d3d3d3"/>
    <path d="M 230.4 315.609917 
L 325.606612 220.403306 
" clip-path="url(#pc3161cc200)" style="fill: none; stroke: #d3d3d3"/>
    <path d="M 325.606612 315.609917 
L 373.209917 220.403306 
" clip-path="url(#pc3161cc200)" style="fill: none; stroke: #d3d3d3"/>
    <path d="M 373.209917 315.609917 
L 420.813223 220.403306 
" clip-path="url(#pc3161cc200)" style="fill: none; stroke: #d3d3d3"/>
    <path d="M 39.986777 220.403306 
L 420.813223 220.403306 
" clip-path="url(#pc3161cc200)" style="fill: none; stroke: #d3d3d3"/>
    <path d="M 39.986777 220.403306 
L 87.590083 125.196694 
" clip-path="url(#pc3161cc200)" style="fill: none; stroke: #d3d3d3"/>
    <path d="M 87.590083 220.403306 
L 135.193388 125.196694 
" clip-path="url(#pc3161cc200)" style="fill: none; stroke: #d3d3d3"/>
    <path d="M 182.796694 220.403306 
L 325.606612 220.403306 
" clip-path="url(#pc3161cc200)" style="fill: none; stroke: #d3d3d3"/>
    <path d="M 182.796694 220.403306 
L 230.4 125.196694 
" clip-path="url(#pc3161cc200)" style="fill: none; stroke: #d3d3d3"/>
    <path d="M 325.606612 220.403306 
L 278.003306 125.196694 
" clip-path="url(#pc3161cc200)" style="fill: none; stroke: #d3d3d3"/>
    <path d="M 373.209917 220.403306 
L 325.606612 125.196694 
" clip-path="url(#pc3161cc200)" style="fill: none; stroke: #d3d3d3"/>
    <path d="M 420.813223 220.403306 
L 373.209917 125.196694 
" clip-path="url(#pc3161cc200)" style="fill: none; stroke: #d3d3d3"/>
    <path d="M 87.590083 125.196694 
L 373.209917 125.196694 
" clip-path="url(#pc3161cc200)" style="fill: none; stroke: #d3d3d3"/>
    <path d="M 87.590083 125.196694 
L 135.193388 29.990083 
" clip-path="url(#pc3161cc200)" style="fill: none; stroke: #d3d3d3"/>
    <path d="M 182.796694 125.196694 
L 182.796694 29.990083 
" clip-path="url(#pc3161cc200)" style="fill: none; stroke: #d3d3d3"/>
    <path d="M 230.4 125.196694 
L 230.4 29.990083 
" clip-path="url(#pc3161cc200)" style="fill: none; stroke: #d3d3d3"/>
    <path d="M 278.003306 125.196694 
L 278.003306 29.990083 
" clip-path="url(#pc3161cc200)" style="fill: none; stroke: #d3d3d3"/>
   </g>
   <g id="text_1">
    <g id="patch_2">
     <path d="M 55.335797 265.124286 
L 61.025471 276.503636 
Q 62.098784 278.650262 64.245409 277.576949 
L 71.170512 274.114398 
Q 73.317137 273.041085 72.243825 270.89446 
L 66.55415 259.51511 
Q 65.480837 257.368485 63.334212 258.441797 
L 56.409109 261.904348 
Q 54.262484 262.977661 55.335797 265.124286 
z
" clip-path="url(#pc3161cc200)" style="fill: #ffffff; stroke: #ffffff; stroke-linejoin: miter"/>
    </g>
    <g clip-path="url(#pc3161cc200)">
     <!-- 5.0 -->
     <g style="fill: #d3d3d3" transform="translate(58.970525 263.306922) rotate(-296.565051) scale(0.08 -0.08)">
      <defs>
       <path id="DejaVuSans-35" d="M 691 4666 
L 3169 4666 
L 3169 4134 
L 1269 4134 
L 1269 2991 
Q 1406 3038 1543 3061 
Q 1681 3084 1819 3084 
Q 2600 3084 3056 2656 
Q 3513 2228 3513 1497 
Q 3513 744 3044 326 
Q 2575 -91 1722 -91 
Q 1428 -91 1123 -41 
Q 819 9 494 109 
L 494 744 
Q 775 591 1075 516 
Q 1375 441 1709 441 
Q 2250 441 2565 725 
Q 2881 1009 2881 1497 
Q 2881 1984 2565 2268 
Q 2250 2553 1709 2553 
Q 1456 2553 1204 2497 
Q 953 2441 691 2322 
L 691 4666 
z
" transform="scale(0.015625)"/>
       <path id="DejaVuSans-2e" d="M 684 794 
L 1344 794 
L 1344 0 
L 684 0 
L 684 794 
z
" transform="scale(0.015625)"/>
       <path id="DejaVuSans-30" d="M 2034 4250 
Q 1547 4250 1301 3770 
Q 1056 3291 1056 2328 
Q 1056 1369 1301 889 
Q 1547 409 2034 409 
Q 2525 409 2770 889 
Q 3016 1369 3016 2328 
Q 3016 3291 2770 3770 
Q 2525 4250 2034 4250 
z
M 2034 4750 
Q 2819 4750 3233 4129 
Q 3647 3509 3647 2328 
Q 3647 1150 3233 529 
Q 2819 -91 2034 -91 
Q 1250 -91 836 529 
Q 422 1150 422 2328 
Q 422 3509 836 4129 
Q 1250 4750 2034 4750 
z
" transform="scale(0.015625)"/>
      </defs>
      <use xlink:href="#DejaVuSans-35"/>
      <use xlink:href="#DejaVuSans-2e" transform="translate(63.623047 0)"/>
      <use xlink:href="#DejaVuSans-30" transform="translate(95.410156 0)"/>
     </g>
    </g>
   </g>
   <g id="text_2">
    <g id="patch_3">
     <path d="M 162.918762 230.565449 
L 167.238928 213.284786 
Q 167.821013 210.956444 165.492671 210.374358 
L 157.981343 208.496526 
Q 155.653001 207.914441 155.070916 210.242783 
L 150.75075 227.523446 
Q 150.168664 229.851788 152.497006 230.433874 
L 160.008335 232.311706 
Q 162.336677 232.893791 162.918762 230.565449 
z
" clip-path="url(#pc3161cc200)" style="fill: #ffffff; stroke: #ffffff; stroke-linejoin: miter"/>
    </g>
    <g clip-path="url(#pc3161cc200)">
     <!-- 10.0 -->
     <g style="fill: #d3d3d3" transform="translate(158.976345 229.579845) rotate(-75.963757) scale(0.08 -0.08)">
      <defs>
       <path id="DejaVuSans-31" d="M 794 531 
L 1825 531 
L 1825 4091 
L 703 3866 
L 703 4441 
L 1819 4666 
L 2450 4666 
L 2450 531 
L 3481 531 
L 3481 0 
L 794 0 
L 794 531 
z
" transform="scale(0.015625)"/>
      </defs>
      <use xlink:href="#DejaVuSans-31"/>
      <use xlink:href="#DejaVuSans-30" transform="translate(63.623047 0)"/>
      <use xlink:href="#DejaVuSans-2e" transform="translate(127.246094 0)"/>
      <use xlink:href="#DejaVuSans-30" transform="translate(159.033203 0)"/>
     </g>
    </g>
   </g>
   <g id="text_3">
    <g id="patch_4">
     <path d="M 189.067944 274.367426 
L 189.067944 261.644926 
Q 189.067944 259.244926 186.667944 259.244926 
L 178.925444 259.244926 
Q 176.525444 259.244926 176.525444 261.644926 
L 176.525444 274.367426 
Q 176.525444 276.767426 178.925444 276.767426 
L 186.667944 276.767426 
Q 189.067944 276.767426 189.067944 274.367426 
z
" clip-path="url(#pc3161cc200)" style="fill: #ffffff; stroke: #ffffff; stroke-linejoin: miter"/>
    </g>
    <g clip-path="url(#pc3161cc200)">
     <!-- 5.0 -->
     <g style="fill: #d3d3d3" transform="translate(185.004194 274.367426) rotate(-90) scale(0.08 -0.08)">
      <use xlink:href="#DejaVuSans-35"/>
      <use xlink:href="#DejaVuSans-2e" transform="translate(63.623047 0)"/>
      <use xlink:href="#DejaVuSans-30" transform="translate(95.410156 0)"/>
     </g>
    </g>
   </g>
   <g id="text_4">
    <g id="patch_5">
     <path d="M 277.938023 276.940781 
L 286.934189 267.944615 
Q 288.631246 266.247559 286.934189 264.550502 
L 281.459415 259.075728 
Q 279.762359 257.378672 278.065303 259.075728 
L 269.069136 268.071894 
Q 267.37208 269.76895 269.069136 271.466007 
L 274.543911 276.940781 
Q 276.240967 278.637837 277.938023 276.940781 
z
" clip-path="url(#pc3161cc200)" style="fill: #ffffff; stroke: #ffffff; stroke-linejoin: miter"/>
    </g>
    <g clip-path="url(#pc3161cc200)">
     <!-- 5.0 -->
     <g style="fill: #d3d3d3" transform="translate(275.064518 274.067276) rotate(-45) scale(0.08 -0.08)">
      <use xlink:href="#DejaVuSans-35"/>
      <use xlink:href="#DejaVuSans-2e" transform="translate(63.623047 0)"/>
      <use xlink:href="#DejaVuSans-30" transform="translate(95.410156 0)"/>
     </g>
    </g>
   </g>
   <g id="text_5">
    <g id="patch_6">
     <path d="M 352.171223 276.503636 
L 357.860898 265.124286 
Q 358.93421 262.977661 356.787585 261.904348 
L 349.862483 258.441797 
Q 347.715857 257.368485 346.642545 259.51511 
L 340.95287 270.89446 
Q 339.879557 273.041085 342.026182 274.114398 
L 348.951285 277.576949 
Q 351.09791 278.650262 352.171223 276.503636 
z
" clip-path="url(#pc3161cc200)" style="fill: #ffffff; stroke: #ffffff; stroke-linejoin: miter"/>
    </g>
    <g clip-path="url(#pc3161cc200)">
     <!-- 5.0 -->
     <g style="fill: #d3d3d3" transform="translate(348.536494 274.686272) rotate(-63.434949) scale(0.08 -0.08)">
      <use xlink:href="#DejaVuSans-35"/>
      <use xlink:href="#DejaVuSans-2e" transform="translate(63.623047 0)"/>
      <use xlink:href="#DejaVuSans-30" transform="translate(95.410156 0)"/>
     </g>
    </g>
   </g>
   <g id="text_6">
    <g id="patch_7">
     <path d="M 399.774529 276.503636 
L 405.464203 265.124286 
Q 406.537516 262.977661 404.390891 261.904348 
L 397.465788 258.441797 
Q 395.319163 257.368485 394.24585 259.51511 
L 388.556175 270.89446 
Q 387.482863 273.041085 389.629488 274.114398 
L 396.554591 277.576949 
Q 398.701216 278.650262 399.774529 276.503636 
z
" clip-path="url(#pc3161cc200)" style="fill: #ffffff; stroke: #ffffff; stroke-linejoin: miter"/>
    </g>
    <g clip-path="url(#pc3161cc200)">
     <!-- 5.0 -->
     <g style="fill: #d3d3d3" transform="translate(396.1398 274.686272) rotate(-63.434949) scale(0.08 -0.08)">
      <use xlink:href="#DejaVuSans-35"/>
      <use xlink:href="#DejaVuSans-2e" transform="translate(63.623047 0)"/>
      <use xlink:href="#DejaVuSans-30" transform="translate(95.410156 0)"/>
     </g>
    </g>
   </g>
   <g id="text_7">
    <g id="patch_8">
     <path d="M 221.492863 226.674556 
L 239.305363 226.674556 
Q 241.705363 226.674556 241.705363 224.274556 
L 241.705363 216.532056 
Q 241.705363 214.132056 239.305363 214.132056 
L 221.492863 214.132056 
Q 219.092863 214.132056 219.092863 216.532056 
L 219.092863 224.274556 
Q 219.092863 226.674556 221.492863 226.674556 
z
" clip-path="url(#pc3161cc200)" style="fill: #ffffff; stroke: #ffffff; stroke-linejoin: miter"/>
    </g>
    <g clip-path="url(#pc3161cc200)">
     <!-- 20.0 -->
     <g style="fill: #d3d3d3" transform="translate(221.492863 222.610806) scale(0.08 -0.08)">
      <defs>
       <path id="DejaVuSans-32" d="M 1228 531 
L 3431 531 
L 3431 0 
L 469 0 
L 469 531 
Q 828 903 1448 1529 
Q 2069 2156 2228 2338 
Q 2531 2678 2651 2914 
Q 2772 3150 2772 3378 
Q 2772 3750 2511 3984 
Q 2250 4219 1831 4219 
Q 1534 4219 1204 4116 
Q 875 4013 500 3803 
L 500 4441 
Q 881 4594 1212 4672 
Q 1544 4750 1819 4750 
Q 2544 4750 2975 4387 
Q 3406 4025 3406 3419 
Q 3406 3131 3298 2873 
Q 3191 2616 2906 2266 
Q 2828 2175 2409 1742 
Q 1991 1309 1228 531 
z
" transform="scale(0.015625)"/>
      </defs>
      <use xlink:href="#DejaVuSans-32"/>
      <use xlink:href="#DejaVuSans-30" transform="translate(63.623047 0)"/>
      <use xlink:href="#DejaVuSans-2e" transform="translate(127.246094 0)"/>
      <use xlink:href="#DejaVuSans-30" transform="translate(159.033203 0)"/>
     </g>
    </g>
   </g>
   <g id="text_8">
    <g id="patch_9">
     <path d="M 66.551388 181.297025 
L 72.241063 169.917675 
Q 73.314376 167.77105 71.16775 166.697737 
L 64.242648 163.235186 
Q 62.096023 162.161873 61.02271 164.308498 
L 55.333035 175.687848 
Q 54.259722 177.834473 56.406348 178.907786 
L 63.33145 182.370337 
Q 65.478075 183.44365 66.551388 181.297025 
z
" clip-path="url(#pc3161cc200)" style="fill: #ffffff; stroke: #ffffff; stroke-linejoin: miter"/>
    </g>
    <g clip-path="url(#pc3161cc200)">
     <!-- 5.0 -->
     <g style="fill: #d3d3d3" transform="translate(62.91666 179.479661) rotate(-63.434949) scale(0.08 -0.08)">
      <use xlink:href="#DejaVuSans-35"/>
      <use xlink:href="#DejaVuSans-2e" transform="translate(63.623047 0)"/>
      <use xlink:href="#DejaVuSans-30" transform="translate(95.410156 0)"/>
     </g>
    </g>
   </g>
   <g id="text_9">
    <g id="patch_10">
     <path d="M 114.154694 181.297025 
L 119.844369 169.917675 
Q 120.917681 167.77105 118.771056 166.697737 
L 111.845954 163.235186 
Q 109.699328 162.161873 108.626016 164.308498 
L 102.936341 175.687848 
Q 101.863028 177.834473 104.009653 178.907786 
L 110.934756 182.370337 
Q 113.081381 183.44365 114.154694 181.297025 
z
" clip-path="url(#pc3161cc200)" style="fill: #ffffff; stroke: #ffffff; stroke-linejoin: miter"/>
    </g>
    <g clip-path="url(#pc3161cc200)">
     <!-- 5.0 -->
     <g style="fill: #d3d3d3" transform="translate(110.519965 179.479661) rotate(-63.434949) scale(0.08 -0.08)">
      <use xlink:href="#DejaVuSans-35"/>
      <use xlink:href="#DejaVuSans-2e" transform="translate(63.623047 0)"/>
      <use xlink:href="#DejaVuSans-30" transform="translate(95.410156 0)"/>
     </g>
    </g>
   </g>
   <g id="text_10">
    <g id="patch_11">
     <path d="M 247.840948 226.674556 
L 260.563448 226.674556 
Q 262.963448 226.674556 262.963448 224.274556 
L 262.963448 216.532056 
Q 262.963448 214.132056 260.563448 214.132056 
L 247.840948 214.132056 
Q 245.440948 214.132056 245.440948 216.532056 
L 245.440948 224.274556 
Q 245.440948 226.674556 247.840948 226.674556 
z
" clip-path="url(#pc3161cc200)" style="fill: #ffffff; stroke: #ffffff; stroke-linejoin: miter"/>
    </g>
    <g clip-path="url(#pc3161cc200)">
     <!-- 5.0 -->
     <g style="fill: #d3d3d3" transform="translate(247.840948 222.610806) scale(0.08 -0.08)">
      <use xlink:href="#DejaVuSans-35"/>
      <use xlink:href="#DejaVuSans-2e" transform="translate(63.623047 0)"/>
      <use xlink:href="#DejaVuSans-30" transform="translate(95.410156 0)"/>
     </g>
    </g>
   </g>
   <g id="text_11">
    <g id="patch_12">
     <path d="M 209.361305 181.297025 
L 215.05098 169.917675 
Q 216.124293 167.77105 213.977668 166.697737 
L 207.052565 163.235186 
Q 204.90594 162.161873 203.832627 164.308498 
L 198.142952 175.687848 
Q 197.06964 177.834473 199.216265 178.907786 
L 206.141367 182.370337 
Q 208.287993 183.44365 209.361305 181.297025 
z
" clip-path="url(#pc3161cc200)" style="fill: #ffffff; stroke: #ffffff; stroke-linejoin: miter"/>
    </g>
    <g clip-path="url(#pc3161cc200)">
     <!-- 5.0 -->
     <g style="fill: #d3d3d3" transform="translate(205.726577 179.479661) rotate(-63.434949) scale(0.08 -0.08)">
      <use xlink:href="#DejaVuSans-35"/>
      <use xlink:href="#DejaVuSans-2e" transform="translate(63.623047 0)"/>
      <use xlink:href="#DejaVuSans-30" transform="translate(95.410156 0)"/>
     </g>
    </g>
   </g>
   <g id="text_12">
    <g id="patch_13">
     <path d="M 293.352325 169.917675 
L 299.042 181.297025 
Q 300.115313 183.44365 302.261938 182.370337 
L 309.187041 178.907786 
Q 311.333666 177.834473 310.260353 175.687848 
L 304.570678 164.308498 
Q 303.497366 162.161873 301.350741 163.235186 
L 294.425638 166.697737 
Q 292.279013 167.77105 293.352325 169.917675 
z
" clip-path="url(#pc3161cc200)" style="fill: #ffffff; stroke: #ffffff; stroke-linejoin: miter"/>
    </g>
    <g clip-path="url(#pc3161cc200)">
     <!-- 5.0 -->
     <g style="fill: #d3d3d3" transform="translate(296.987054 168.100311) rotate(-296.565051) scale(0.08 -0.08)">
      <use xlink:href="#DejaVuSans-35"/>
      <use xlink:href="#DejaVuSans-2e" transform="translate(63.623047 0)"/>
      <use xlink:href="#DejaVuSans-30" transform="translate(95.410156 0)"/>
     </g>
    </g>
   </g>
   <g id="text_13">
    <g id="patch_14">
     <path d="M 340.955631 169.917675 
L 346.645306 181.297025 
Q 347.718619 183.44365 349.865244 182.370337 
L 356.790347 178.907786 
Q 358.936972 177.834473 357.863659 175.687848 
L 352.173984 164.308498 
Q 351.100672 162.161873 348.954046 163.235186 
L 342.028944 166.697737 
Q 339.882319 167.77105 340.955631 169.917675 
z
" clip-path="url(#pc3161cc200)" style="fill: #ffffff; stroke: #ffffff; stroke-linejoin: miter"/>
    </g>
    <g clip-path="url(#pc3161cc200)">
     <!-- 5.0 -->
     <g style="fill: #d3d3d3" transform="translate(344.59036 168.100311) rotate(-296.565051) scale(0.08 -0.08)">
      <use xlink:href="#DejaVuSans-35"/>
      <use xlink:href="#DejaVuSans-2e" transform="translate(63.623047 0)"/>
      <use xlink:href="#DejaVuSans-30" transform="translate(95.410156 0)"/>
     </g>
    </g>
   </g>
   <g id="text_14">
    <g id="patch_15">
     <path d="M 388.558937 169.917675 
L 394.248612 181.297025 
Q 395.321925 183.44365 397.46855 182.370337 
L 404.393652 178.907786 
Q 406.540278 177.834473 405.466965 175.687848 
L 399.77729 164.308498 
Q 398.703977 162.161873 396.557352 163.235186 
L 389.63225 166.697737 
Q 387.485624 167.77105 388.558937 169.917675 
z
" clip-path="url(#pc3161cc200)" style="fill: #ffffff; stroke: #ffffff; stroke-linejoin: miter"/>
    </g>
    <g clip-path="url(#pc3161cc200)">
     <!-- 5.0 -->
     <g style="fill: #d3d3d3" transform="translate(392.193666 168.100311) rotate(-296.565051) scale(0.08 -0.08)">
      <use xlink:href="#DejaVuSans-35"/>
      <use xlink:href="#DejaVuSans-2e" transform="translate(63.623047 0)"/>
      <use xlink:href="#DejaVuSans-30" transform="translate(95.410156 0)"/>
     </g>
    </g>
   </g>
   <g id="text_15">
    <g id="patch_16">
     <path d="M 221.49402 131.467944 
L 239.30652 131.467944 
Q 241.70652 131.467944 241.70652 129.067944 
L 241.70652 121.325444 
Q 241.70652 118.925444 239.30652 118.925444 
L 221.49402 118.925444 
Q 219.09402 118.925444 219.09402 121.325444 
L 219.09402 129.067944 
Q 219.09402 131.467944 221.49402 131.467944 
z
" clip-path="url(#pc3161cc200)" style="fill: #ffffff; stroke: #ffffff; stroke-linejoin: miter"/>
    </g>
    <g clip-path="url(#pc3161cc200)">
     <!-- 20.0 -->
     <g style="fill: #d3d3d3" transform="translate(221.49402 127.404194) scale(0.08 -0.08)">
      <use xlink:href="#DejaVuSans-32"/>
      <use xlink:href="#DejaVuSans-30" transform="translate(63.623047 0)"/>
      <use xlink:href="#DejaVuSans-2e" transform="translate(127.246094 0)"/>
      <use xlink:href="#DejaVuSans-30" transform="translate(159.033203 0)"/>
     </g>
    </g>
   </g>
   <g id="text_16">
    <g id="patch_17">
     <path d="M 114.154694 86.090413 
L 119.844369 74.711063 
Q 120.917681 72.564438 118.771056 71.491125 
L 111.845954 68.028574 
Q 109.699328 66.955261 108.626016 69.101887 
L 102.936341 80.481237 
Q 101.863028 82.627862 104.009653 83.701175 
L 110.934756 87.163726 
Q 113.081381 88.237038 114.154694 86.090413 
z
" clip-path="url(#pc3161cc200)" style="fill: #ffffff; stroke: #ffffff; stroke-linejoin: miter"/>
    </g>
    <g clip-path="url(#pc3161cc200)">
     <!-- 5.0 -->
     <g style="fill: #d3d3d3" transform="translate(110.519965 84.273049) rotate(-63.434949) scale(0.08 -0.08)">
      <use xlink:href="#DejaVuSans-35"/>
      <use xlink:href="#DejaVuSans-2e" transform="translate(63.623047 0)"/>
      <use xlink:href="#DejaVuSans-30" transform="translate(95.410156 0)"/>
     </g>
    </g>
   </g>
   <g id="text_17">
    <g id="patch_18">
     <path d="M 189.067944 83.954202 
L 189.067944 71.231702 
Q 189.067944 68.831702 186.667944 68.831702 
L 178.925444 68.831702 
Q 176.525444 68.831702 176.525444 71.231702 
L 176.525444 83.954202 
Q 176.525444 86.354202 178.925444 86.354202 
L 186.667944 86.354202 
Q 189.067944 86.354202 189.067944 83.954202 
z
" clip-path="url(#pc3161cc200)" style="fill: #ffffff; stroke: #ffffff; stroke-linejoin: miter"/>
    </g>
    <g clip-path="url(#pc3161cc200)">
     <!-- 5.0 -->
     <g style="fill: #d3d3d3" transform="translate(185.004194 83.954202) rotate(-90) scale(0.08 -0.08)">
      <use xlink:href="#DejaVuSans-35"/>
      <use xlink:href="#DejaVuSans-2e" transform="translate(63.623047 0)"/>
      <use xlink:href="#DejaVuSans-30" transform="translate(95.410156 0)"/>
     </g>
    </g>
   </g>
   <g id="text_18">
    <g id="patch_19">
     <path d="M 236.67125 83.954202 
L 236.67125 71.231702 
Q 236.67125 68.831702 234.27125 68.831702 
L 226.52875 68.831702 
Q 224.12875 68.831702 224.12875 71.231702 
L 224.12875 83.954202 
Q 224.12875 86.354202 226.52875 86.354202 
L 234.27125 86.354202 
Q 236.67125 86.354202 236.67125 83.954202 
z
" clip-path="url(#pc3161cc200)" style="fill: #ffffff; stroke: #ffffff; stroke-linejoin: miter"/>
    </g>
    <g clip-path="url(#pc3161cc200)">
     <!-- 5.0 -->
     <g style="fill: #d3d3d3" transform="translate(232.6075 83.954202) rotate(-90) scale(0.08 -0.08)">
      <use xlink:href="#DejaVuSans-35"/>
      <use xlink:href="#DejaVuSans-2e" transform="translate(63.623047 0)"/>
      <use xlink:href="#DejaVuSans-30" transform="translate(95.410156 0)"/>
     </g>
    </g>
   </g>
   <g id="text_19">
    <g id="patch_20">
     <path d="M 284.274556 83.954202 
L 284.274556 71.231702 
Q 284.274556 68.831702 281.874556 68.831702 
L 274.132056 68.831702 
Q 271.732056 68.831702 271.732056 71.231702 
L 271.732056 83.954202 
Q 271.732056 86.354202 274.132056 86.354202 
L 281.874556 86.354202 
Q 284.274556 86.354202 284.274556 83.954202 
z
" clip-path="url(#pc3161cc200)" style="fill: #ffffff; stroke: #ffffff; stroke-linejoin: miter"/>
    </g>
    <g clip-path="url(#pc3161cc200)">
     <!-- 5.0 -->
     <g style="fill: #d3d3d3" transform="translate(280.210806 83.954202) rotate(-90) scale(0.08 -0.08)">
      <use xlink:href="#DejaVuSans-35"/>
      <use xlink:href="#DejaVuSans-2e" transform="translate(63.623047 0)"/>
      <use xlink:href="#DejaVuSans-30" transform="translate(95.410156 0)"/>
     </g>
    </g>
   </g>
   <g id="LineCollection_3">
    <path d="M 135.193388 315.609917 
L 182.796694 315.609917 
" clip-path="url(#pc3161cc200)" style="fill: none; stroke: #000000"/>
    <path d="M 230.4 315.609917 
L 278.003306 315.609917 
" clip-path="url(#pc3161cc200)" style="fill: none; stroke: #000000"/>
    <path d="M 325.606612 315.609917 
L 373.209917 315.609917 
" clip-path="url(#pc3161cc200)" style="fill: none; stroke: #000000"/>
    <path d="M 39.986777 220.403306 
L 87.590083 220.403306 
" clip-path="url(#pc3161cc200)" style="fill: none; stroke: #000000"/>
    <path d="M 135.193388 220.403306 
L 182.796694 220.403306 
" clip-path="url(#pc3161cc200)" style="fill: none; stroke: #000000"/>
    <path d="M 230.4 220.403306 
L 278.003306 220.403306 
" clip-path="url(#pc3161cc200)" style="fill: none; stroke: #000000"/>
    <path d="M 278.003306 220.403306 
L 325.606612 220.403306 
" clip-path="url(#pc3161cc200)" style="fill: none; stroke: #000000"/>
    <path d="M 325.606612 220.403306 
L 373.209917 220.403306 
" clip-path="url(#pc3161cc200)" style="fill: none; stroke: #000000"/>
    <path d="M 373.209917 220.403306 
L 420.813223 220.403306 
" clip-path="url(#pc3161cc200)" style="fill: none; stroke: #000000"/>
    <path d="M 87.590083 125.196694 
L 135.193388 125.196694 
" clip-path="url(#pc3161cc200)" style="fill: none; stroke: #000000"/>
    <path d="M 135.193388 125.196694 
L 182.796694 125.196694 
" clip-path="url(#pc3161cc200)" style="fill: none; stroke: #000000"/>
    <path d="M 182.796694 125.196694 
L 230.4 125.196694 
" clip-path="url(#pc3161cc200)" style="fill: none; stroke: #000000"/>
    <path d="M 230.4 125.196694 
L 278.003306 125.196694 
" clip-path="url(#pc3161cc200)" style="fill: none; stroke: #000000"/>
    <path d="M 278.003306 125.196694 
L 325.606612 125.196694 
" clip-path="url(#pc3161cc200)" style="fill: none; stroke: #000000"/>
    <path d="M 325.606612 125.196694 
L 373.209917 125.196694 
" clip-path="url(#pc3161cc200)" style="fill: none; stroke: #000000"/>
    <path d="M 135.193388 29.990083 
L 182.796694 29.990083 
" clip-path="url(#pc3161cc200)" style="fill: none; stroke: #000000"/>
    <path d="M 182.796694 29.990083 
L 230.4 29.990083 
" clip-path="url(#pc3161cc200)" style="fill: none; stroke: #000000"/>
    <path d="M 230.4 29.990083 
L 278.003306 29.990083 
" clip-path="url(#pc3161cc200)" style="fill: none; stroke: #000000"/>
    <path d="M 278.003306 29.990083 
L 325.606612 29.990083 
" clip-path="url(#pc3161cc200)" style="fill: none; stroke: #000000"/>
   </g>
   <g id="text_20">
    <g id="patch_21">
     <path d="M 152.636183 321.881167 
L 165.358683 321.881167 
Q 167.758683 321.881167 167.758683 319.481167 
L 167.758683 311.738667 
Q 167.758683 309.338667 165.358683 309.338667 
L 152.636183 309.338667 
Q 150.236183 309.338667 150.236183 311.738667 
L 150.236183 319.481167 
Q 150.236183 321.881167 152.636183 321.881167 
z
" clip-path="url(#pc3161cc200)" style="fill: #ffffff; stroke: #ffffff; stroke-linejoin: miter"/>
    </g>
    <g clip-path="url(#pc3161cc200)">
     <!-- 6.0 -->
     <g transform="translate(152.636183 317.817417) scale(0.08 -0.08)">
      <defs>
       <path id="DejaVuSans-36" d="M 2113 2584 
Q 1688 2584 1439 2293 
Q 1191 2003 1191 1497 
Q 1191 994 1439 701 
Q 1688 409 2113 409 
Q 2538 409 2786 701 
Q 3034 994 3034 1497 
Q 3034 2003 2786 2293 
Q 2538 2584 2113 2584 
z
M 3366 4563 
L 3366 3988 
Q 3128 4100 2886 4159 
Q 2644 4219 2406 4219 
Q 1781 4219 1451 3797 
Q 1122 3375 1075 2522 
Q 1259 2794 1537 2939 
Q 1816 3084 2150 3084 
Q 2853 3084 3261 2657 
Q 3669 2231 3669 1497 
Q 3669 778 3244 343 
Q 2819 -91 2113 -91 
Q 1303 -91 875 529 
Q 447 1150 447 2328 
Q 447 3434 972 4092 
Q 1497 4750 2381 4750 
Q 2619 4750 2861 4703 
Q 3103 4656 3366 4563 
z
" transform="scale(0.015625)"/>
      </defs>
      <use xlink:href="#DejaVuSans-36"/>
      <use xlink:href="#DejaVuSans-2e" transform="translate(63.623047 0)"/>
      <use xlink:href="#DejaVuSans-30" transform="translate(95.410156 0)"/>
     </g>
    </g>
   </g>
   <g id="text_21">
    <g id="patch_22">
     <path d="M 247.842795 321.881167 
L 260.565295 321.881167 
Q 262.965295 321.881167 262.965295 319.481167 
L 262.965295 311.738667 
Q 262.965295 309.338667 260.565295 309.338667 
L 247.842795 309.338667 
Q 245.442795 309.338667 245.442795 311.738667 
L 245.442795 319.481167 
Q 245.442795 321.881167 247.842795 321.881167 
z
" clip-path="url(#pc3161cc200)" style="fill: #ffffff; stroke: #ffffff; stroke-linejoin: miter"/>
    </g>
    <g clip-path="url(#pc3161cc200)">
     <!-- 3.0 -->
     <g transform="translate(247.842795 317.817417) scale(0.08 -0.08)">
      <defs>
       <path id="DejaVuSans-33" d="M 2597 2516 
Q 3050 2419 3304 2112 
Q 3559 1806 3559 1356 
Q 3559 666 3084 287 
Q 2609 -91 1734 -91 
Q 1441 -91 1130 -33 
Q 819 25 488 141 
L 488 750 
Q 750 597 1062 519 
Q 1375 441 1716 441 
Q 2309 441 2620 675 
Q 2931 909 2931 1356 
Q 2931 1769 2642 2001 
Q 2353 2234 1838 2234 
L 1294 2234 
L 1294 2753 
L 1863 2753 
Q 2328 2753 2575 2939 
Q 2822 3125 2822 3475 
Q 2822 3834 2567 4026 
Q 2313 4219 1838 4219 
Q 1578 4219 1281 4162 
Q 984 4106 628 3988 
L 628 4550 
Q 988 4650 1302 4700 
Q 1616 4750 1894 4750 
Q 2613 4750 3031 4423 
Q 3450 4097 3450 3541 
Q 3450 3153 3228 2886 
Q 3006 2619 2597 2516 
z
" transform="scale(0.015625)"/>
      </defs>
      <use xlink:href="#DejaVuSans-33"/>
      <use xlink:href="#DejaVuSans-2e" transform="translate(63.623047 0)"/>
      <use xlink:href="#DejaVuSans-30" transform="translate(95.410156 0)"/>
     </g>
    </g>
   </g>
   <g id="text_22">
    <g id="patch_23">
     <path d="M 343.049407 321.881167 
L 355.771907 321.881167 
Q 358.171907 321.881167 358.171907 319.481167 
L 358.171907 311.738667 
Q 358.171907 309.338667 355.771907 309.338667 
L 343.049407 309.338667 
Q 340.649407 309.338667 340.649407 311.738667 
L 340.649407 319.481167 
Q 340.649407 321.881167 343.049407 321.881167 
z
" clip-path="url(#pc3161cc200)" style="fill: #ffffff; stroke: #ffffff; stroke-linejoin: miter"/>
    </g>
    <g clip-path="url(#pc3161cc200)">
     <!-- 6.0 -->
     <g transform="translate(343.049407 317.817417) scale(0.08 -0.08)">
      <use xlink:href="#DejaVuSans-36"/>
      <use xlink:href="#DejaVuSans-2e" transform="translate(63.623047 0)"/>
      <use xlink:href="#DejaVuSans-30" transform="translate(95.410156 0)"/>
     </g>
    </g>
   </g>
   <g id="text_23">
    <g id="patch_24">
     <path d="M 57.429572 226.674556 
L 70.152072 226.674556 
Q 72.552072 226.674556 72.552072 224.274556 
L 72.552072 216.532056 
Q 72.552072 214.132056 70.152072 214.132056 
L 57.429572 214.132056 
Q 55.029572 214.132056 55.029572 216.532056 
L 55.029572 224.274556 
Q 55.029572 226.674556 57.429572 226.674556 
z
" clip-path="url(#pc3161cc200)" style="fill: #ffffff; stroke: #ffffff; stroke-linejoin: miter"/>
    </g>
    <g clip-path="url(#pc3161cc200)">
     <!-- 9.0 -->
     <g transform="translate(57.429572 222.610806) scale(0.08 -0.08)">
      <defs>
       <path id="DejaVuSans-39" d="M 703 97 
L 703 672 
Q 941 559 1184 500 
Q 1428 441 1663 441 
Q 2288 441 2617 861 
Q 2947 1281 2994 2138 
Q 2813 1869 2534 1725 
Q 2256 1581 1919 1581 
Q 1219 1581 811 2004 
Q 403 2428 403 3163 
Q 403 3881 828 4315 
Q 1253 4750 1959 4750 
Q 2769 4750 3195 4129 
Q 3622 3509 3622 2328 
Q 3622 1225 3098 567 
Q 2575 -91 1691 -91 
Q 1453 -91 1209 -44 
Q 966 3 703 97 
z
M 1959 2075 
Q 2384 2075 2632 2365 
Q 2881 2656 2881 3163 
Q 2881 3666 2632 3958 
Q 2384 4250 1959 4250 
Q 1534 4250 1286 3958 
Q 1038 3666 1038 3163 
Q 1038 2656 1286 2365 
Q 1534 2075 1959 2075 
z
" transform="scale(0.015625)"/>
      </defs>
      <use xlink:href="#DejaVuSans-39"/>
      <use xlink:href="#DejaVuSans-2e" transform="translate(63.623047 0)"/>
      <use xlink:href="#DejaVuSans-30" transform="translate(95.410156 0)"/>
     </g>
    </g>
   </g>
   <g id="text_24">
    <g id="patch_25">
     <path d="M 152.636183 226.674556 
L 165.358683 226.674556 
Q 167.758683 226.674556 167.758683 224.274556 
L 167.758683 216.532056 
Q 167.758683 214.132056 165.358683 214.132056 
L 152.636183 214.132056 
Q 150.236183 214.132056 150.236183 216.532056 
L 150.236183 224.274556 
Q 150.236183 226.674556 152.636183 226.674556 
z
" clip-path="url(#pc3161cc200)" style="fill: #ffffff; stroke: #ffffff; stroke-linejoin: miter"/>
    </g>
    <g clip-path="url(#pc3161cc200)">
     <!-- 3.0 -->
     <g transform="translate(152.636183 222.610806) scale(0.08 -0.08)">
      <use xlink:href="#DejaVuSans-33"/>
      <use xlink:href="#DejaVuSans-2e" transform="translate(63.623047 0)"/>
      <use xlink:href="#DejaVuSans-30" transform="translate(95.410156 0)"/>
     </g>
    </g>
   </g>
   <g id="text_25">
    <g id="patch_26">
     <path d="M 247.842795 226.674556 
L 260.565295 226.674556 
Q 262.965295 226.674556 262.965295 224.274556 
L 262.965295 216.532056 
Q 262.965295 214.132056 260.565295 214.132056 
L 247.842795 214.132056 
Q 245.442795 214.132056 245.442795 216.532056 
L 245.442795 224.274556 
Q 245.442795 226.674556 247.842795 226.674556 
z
" clip-path="url(#pc3161cc200)" style="fill: #ffffff; stroke: #ffffff; stroke-linejoin: miter"/>
    </g>
    <g clip-path="url(#pc3161cc200)">
     <!-- 4.0 -->
     <g transform="translate(247.842795 222.610806) scale(0.08 -0.08)">
      <defs>
       <path id="DejaVuSans-34" d="M 2419 4116 
L 825 1625 
L 2419 1625 
L 2419 4116 
z
M 2253 4666 
L 3047 4666 
L 3047 1625 
L 3713 1625 
L 3713 1100 
L 3047 1100 
L 3047 0 
L 2419 0 
L 2419 1100 
L 313 1100 
L 313 1709 
L 2253 4666 
z
" transform="scale(0.015625)"/>
      </defs>
      <use xlink:href="#DejaVuSans-34"/>
      <use xlink:href="#DejaVuSans-2e" transform="translate(63.623047 0)"/>
      <use xlink:href="#DejaVuSans-30" transform="translate(95.410156 0)"/>
     </g>
    </g>
   </g>
   <g id="text_26">
    <g id="patch_27">
     <path d="M 295.446101 226.674556 
L 308.168601 226.674556 
Q 310.568601 226.674556 310.568601 224.274556 
L 310.568601 216.532056 
Q 310.568601 214.132056 308.168601 214.132056 
L 295.446101 214.132056 
Q 293.046101 214.132056 293.046101 216.532056 
L 293.046101 224.274556 
Q 293.046101 226.674556 295.446101 226.674556 
z
" clip-path="url(#pc3161cc200)" style="fill: #ffffff; stroke: #ffffff; stroke-linejoin: miter"/>
    </g>
    <g clip-path="url(#pc3161cc200)">
     <!-- 1.0 -->
     <g transform="translate(295.446101 222.610806) scale(0.08 -0.08)">
      <use xlink:href="#DejaVuSans-31"/>
      <use xlink:href="#DejaVuSans-2e" transform="translate(63.623047 0)"/>
      <use xlink:href="#DejaVuSans-30" transform="translate(95.410156 0)"/>
     </g>
    </g>
   </g>
   <g id="text_27">
    <g id="patch_28">
     <path d="M 343.049407 226.674556 
L 355.771907 226.674556 
Q 358.171907 226.674556 358.171907 224.274556 
L 358.171907 216.532056 
Q 358.171907 214.132056 355.771907 214.132056 
L 343.049407 214.132056 
Q 340.649407 214.132056 340.649407 216.532056 
L 340.649407 224.274556 
Q 340.649407 226.674556 343.049407 226.674556 
z
" clip-path="url(#pc3161cc200)" style="fill: #ffffff; stroke: #ffffff; stroke-linejoin: miter"/>
    </g>
    <g clip-path="url(#pc3161cc200)">
     <!-- 5.0 -->
     <g transform="translate(343.049407 222.610806) scale(0.08 -0.08)">
      <use xlink:href="#DejaVuSans-35"/>
      <use xlink:href="#DejaVuSans-2e" transform="translate(63.623047 0)"/>
      <use xlink:href="#DejaVuSans-30" transform="translate(95.410156 0)"/>
     </g>
    </g>
   </g>
   <g id="text_28">
    <g id="patch_29">
     <path d="M 390.652712 226.674556 
L 403.375212 226.674556 
Q 405.775212 226.674556 405.775212 224.274556 
L 405.775212 216.532056 
Q 405.775212 214.132056 403.375212 214.132056 
L 390.652712 214.132056 
Q 388.252712 214.132056 388.252712 216.532056 
L 388.252712 224.274556 
Q 388.252712 226.674556 390.652712 226.674556 
z
" clip-path="url(#pc3161cc200)" style="fill: #ffffff; stroke: #ffffff; stroke-linejoin: miter"/>
    </g>
    <g clip-path="url(#pc3161cc200)">
     <!-- 6.0 -->
     <g transform="translate(390.652712 222.610806) scale(0.08 -0.08)">
      <use xlink:href="#DejaVuSans-36"/>
      <use xlink:href="#DejaVuSans-2e" transform="translate(63.623047 0)"/>
      <use xlink:href="#DejaVuSans-30" transform="translate(95.410156 0)"/>
     </g>
    </g>
   </g>
   <g id="text_29">
    <g id="patch_30">
     <path d="M 105.032878 131.467944 
L 117.755378 131.467944 
Q 120.155378 131.467944 120.155378 129.067944 
L 120.155378 121.325444 
Q 120.155378 118.925444 117.755378 118.925444 
L 105.032878 118.925444 
Q 102.632878 118.925444 102.632878 121.325444 
L 102.632878 129.067944 
Q 102.632878 131.467944 105.032878 131.467944 
z
" clip-path="url(#pc3161cc200)" style="fill: #ffffff; stroke: #ffffff; stroke-linejoin: miter"/>
    </g>
    <g clip-path="url(#pc3161cc200)">
     <!-- 9.0 -->
     <g transform="translate(105.032878 127.404194) scale(0.08 -0.08)">
      <use xlink:href="#DejaVuSans-39"/>
      <use xlink:href="#DejaVuSans-2e" transform="translate(63.623047 0)"/>
      <use xlink:href="#DejaVuSans-30" transform="translate(95.410156 0)"/>
     </g>
    </g>
   </g>
   <g id="text_30">
    <g id="patch_31">
     <path d="M 152.636183 131.467944 
L 165.358683 131.467944 
Q 167.758683 131.467944 167.758683 129.067944 
L 167.758683 121.325444 
Q 167.758683 118.925444 165.358683 118.925444 
L 152.636183 118.925444 
Q 150.236183 118.925444 150.236183 121.325444 
L 150.236183 129.067944 
Q 150.236183 131.467944 152.636183 131.467944 
z
" clip-path="url(#pc3161cc200)" style="fill: #ffffff; stroke: #ffffff; stroke-linejoin: miter"/>
    </g>
    <g clip-path="url(#pc3161cc200)">
     <!-- 1.0 -->
     <g transform="translate(152.636183 127.404194) scale(0.08 -0.08)">
      <use xlink:href="#DejaVuSans-31"/>
      <use xlink:href="#DejaVuSans-2e" transform="translate(63.623047 0)"/>
      <use xlink:href="#DejaVuSans-30" transform="translate(95.410156 0)"/>
     </g>
    </g>
   </g>
   <g id="text_31">
    <g id="patch_32">
     <path d="M 197.694489 131.467944 
L 215.506989 131.467944 
Q 217.906989 131.467944 217.906989 129.067944 
L 217.906989 121.325444 
Q 217.906989 118.925444 215.506989 118.925444 
L 197.694489 118.925444 
Q 195.294489 118.925444 195.294489 121.325444 
L 195.294489 129.067944 
Q 195.294489 131.467944 197.694489 131.467944 
z
" clip-path="url(#pc3161cc200)" style="fill: #ffffff; stroke: #ffffff; stroke-linejoin: miter"/>
    </g>
    <g clip-path="url(#pc3161cc200)">
     <!-- 10.0 -->
     <g transform="translate(197.694489 127.404194) scale(0.08 -0.08)">
      <use xlink:href="#DejaVuSans-31"/>
      <use xlink:href="#DejaVuSans-30" transform="translate(63.623047 0)"/>
      <use xlink:href="#DejaVuSans-2e" transform="translate(127.246094 0)"/>
      <use xlink:href="#DejaVuSans-30" transform="translate(159.033203 0)"/>
     </g>
    </g>
   </g>
   <g id="text_32">
    <g id="patch_33">
     <path d="M 247.842795 131.467944 
L 260.565295 131.467944 
Q 262.965295 131.467944 262.965295 129.067944 
L 262.965295 121.325444 
Q 262.965295 118.925444 260.565295 118.925444 
L 247.842795 118.925444 
Q 245.442795 118.925444 245.442795 121.325444 
L 245.442795 129.067944 
Q 245.442795 131.467944 247.842795 131.467944 
z
" clip-path="url(#pc3161cc200)" style="fill: #ffffff; stroke: #ffffff; stroke-linejoin: miter"/>
    </g>
    <g clip-path="url(#pc3161cc200)">
     <!-- 7.0 -->
     <g transform="translate(247.842795 127.404194) scale(0.08 -0.08)">
      <defs>
       <path id="DejaVuSans-37" d="M 525 4666 
L 3525 4666 
L 3525 4397 
L 1831 0 
L 1172 0 
L 2766 4134 
L 525 4134 
L 525 4666 
z
" transform="scale(0.015625)"/>
      </defs>
      <use xlink:href="#DejaVuSans-37"/>
      <use xlink:href="#DejaVuSans-2e" transform="translate(63.623047 0)"/>
      <use xlink:href="#DejaVuSans-30" transform="translate(95.410156 0)"/>
     </g>
    </g>
   </g>
   <g id="text_33">
    <g id="patch_34">
     <path d="M 295.446101 131.467944 
L 308.168601 131.467944 
Q 310.568601 131.467944 310.568601 129.067944 
L 310.568601 121.325444 
Q 310.568601 118.925444 308.168601 118.925444 
L 295.446101 118.925444 
Q 293.046101 118.925444 293.046101 121.325444 
L 293.046101 129.067944 
Q 293.046101 131.467944 295.446101 131.467944 
z
" clip-path="url(#pc3161cc200)" style="fill: #ffffff; stroke: #ffffff; stroke-linejoin: miter"/>
    </g>
    <g clip-path="url(#pc3161cc200)">
     <!-- 5.0 -->
     <g transform="translate(295.446101 127.404194) scale(0.08 -0.08)">
      <use xlink:href="#DejaVuSans-35"/>
      <use xlink:href="#DejaVuSans-2e" transform="translate(63.623047 0)"/>
      <use xlink:href="#DejaVuSans-30" transform="translate(95.410156 0)"/>
     </g>
    </g>
   </g>
   <g id="text_34">
    <g id="patch_35">
     <path d="M 343.049407 131.467944 
L 355.771907 131.467944 
Q 358.171907 131.467944 358.171907 129.067944 
L 358.171907 121.325444 
Q 358.171907 118.925444 355.771907 118.925444 
L 343.049407 118.925444 
Q 340.649407 118.925444 340.649407 121.325444 
L 340.649407 129.067944 
Q 340.649407 131.467944 343.049407 131.467944 
z
" clip-path="url(#pc3161cc200)" style="fill: #ffffff; stroke: #ffffff; stroke-linejoin: miter"/>
    </g>
    <g clip-path="url(#pc3161cc200)">
     <!-- 6.0 -->
     <g transform="translate(343.049407 127.404194) scale(0.08 -0.08)">
      <use xlink:href="#DejaVuSans-36"/>
      <use xlink:href="#DejaVuSans-2e" transform="translate(63.623047 0)"/>
      <use xlink:href="#DejaVuSans-30" transform="translate(95.410156 0)"/>
     </g>
    </g>
   </g>
   <g id="text_35">
    <g id="patch_36">
     <path d="M 150.091183 36.261333 
L 167.903683 36.261333 
Q 170.303683 36.261333 170.303683 33.861333 
L 170.303683 26.118833 
Q 170.303683 23.718833 167.903683 23.718833 
L 150.091183 23.718833 
Q 147.691183 23.718833 147.691183 26.118833 
L 147.691183 33.861333 
Q 147.691183 36.261333 150.091183 36.261333 
z
" clip-path="url(#pc3161cc200)" style="fill: #ffffff; stroke: #ffffff; stroke-linejoin: miter"/>
    </g>
    <g clip-path="url(#pc3161cc200)">
     <!-- 10.0 -->
     <g transform="translate(150.091183 32.197583) scale(0.08 -0.08)">
      <use xlink:href="#DejaVuSans-31"/>
      <use xlink:href="#DejaVuSans-30" transform="translate(63.623047 0)"/>
      <use xlink:href="#DejaVuSans-2e" transform="translate(127.246094 0)"/>
      <use xlink:href="#DejaVuSans-30" transform="translate(159.033203 0)"/>
     </g>
    </g>
   </g>
   <g id="text_36">
    <g id="patch_37">
     <path d="M 197.694489 36.261333 
L 215.506989 36.261333 
Q 217.906989 36.261333 217.906989 33.861333 
L 217.906989 26.118833 
Q 217.906989 23.718833 215.506989 23.718833 
L 197.694489 23.718833 
Q 195.294489 23.718833 195.294489 26.118833 
L 195.294489 33.861333 
Q 195.294489 36.261333 197.694489 36.261333 
z
" clip-path="url(#pc3161cc200)" style="fill: #ffffff; stroke: #ffffff; stroke-linejoin: miter"/>
    </g>
    <g clip-path="url(#pc3161cc200)">
     <!-- 10.0 -->
     <g transform="translate(197.694489 32.197583) scale(0.08 -0.08)">
      <use xlink:href="#DejaVuSans-31"/>
      <use xlink:href="#DejaVuSans-30" transform="translate(63.623047 0)"/>
      <use xlink:href="#DejaVuSans-2e" transform="translate(127.246094 0)"/>
      <use xlink:href="#DejaVuSans-30" transform="translate(159.033203 0)"/>
     </g>
    </g>
   </g>
   <g id="text_37">
    <g id="patch_38">
     <path d="M 247.842795 36.261333 
L 260.565295 36.261333 
Q 262.965295 36.261333 262.965295 33.861333 
L 262.965295 26.118833 
Q 262.965295 23.718833 260.565295 23.718833 
L 247.842795 23.718833 
Q 245.442795 23.718833 245.442795 26.118833 
L 245.442795 33.861333 
Q 245.442795 36.261333 247.842795 36.261333 
z
" clip-path="url(#pc3161cc200)" style="fill: #ffffff; stroke: #ffffff; stroke-linejoin: miter"/>
    </g>
    <g clip-path="url(#pc3161cc200)">
     <!-- 7.0 -->
     <g transform="translate(247.842795 32.197583) scale(0.08 -0.08)">
      <use xlink:href="#DejaVuSans-37"/>
      <use xlink:href="#DejaVuSans-2e" transform="translate(63.623047 0)"/>
      <use xlink:href="#DejaVuSans-30" transform="translate(95.410156 0)"/>
     </g>
    </g>
   </g>
   <g id="text_38">
    <g id="patch_39">
     <path d="M 295.446101 36.261333 
L 308.168601 36.261333 
Q 310.568601 36.261333 310.568601 33.861333 
L 310.568601 26.118833 
Q 310.568601 23.718833 308.168601 23.718833 
L 295.446101 23.718833 
Q 293.046101 23.718833 293.046101 26.118833 
L 293.046101 33.861333 
Q 293.046101 36.261333 295.446101 36.261333 
z
" clip-path="url(#pc3161cc200)" style="fill: #ffffff; stroke: #ffffff; stroke-linejoin: miter"/>
    </g>
    <g clip-path="url(#pc3161cc200)">
     <!-- 3.0 -->
     <g transform="translate(295.446101 32.197583) scale(0.08 -0.08)">
      <use xlink:href="#DejaVuSans-33"/>
      <use xlink:href="#DejaVuSans-2e" transform="translate(63.623047 0)"/>
      <use xlink:href="#DejaVuSans-30" transform="translate(95.410156 0)"/>
     </g>
    </g>
   </g>
   <g id="PathCollection_1">
    <defs>
     <path id="m7836effabe" d="M -11.18034 11.18034 
L 11.18034 11.18034 
L 11.18034 -11.18034 
L -11.18034 -11.18034 
z
" style="stroke: #c0e9bb"/>
    </defs>
    <g clip-path="url(#pc3161cc200)">
     <use xlink:href="#m7836effabe" x="87.590083" y="315.609917" style="fill: #c0e9bb; stroke: #c0e9bb"/>
     <use xlink:href="#m7836effabe" x="135.193388" y="315.609917" style="fill: #c0e9bb; stroke: #c0e9bb"/>
     <use xlink:href="#m7836effabe" x="182.796694" y="315.609917" style="fill: #c0e9bb; stroke: #c0e9bb"/>
     <use xlink:href="#m7836effabe" x="230.4" y="315.609917" style="fill: #c0e9bb; stroke: #c0e9bb"/>
     <use xlink:href="#m7836effabe" x="278.003306" y="315.609917" style="fill: #c0e9bb; stroke: #c0e9bb"/>
     <use xlink:href="#m7836effabe" x="325.606612" y="315.609917" style="fill: #c0e9bb; stroke: #c0e9bb"/>
     <use xlink:href="#m7836effabe" x="373.209917" y="315.609917" style="fill: #c0e9bb; stroke: #c0e9bb"/>
     <use xlink:href="#m7836effabe" x="39.986777" y="220.403306" style="fill: #c0e9bb; stroke: #c0e9bb"/>
     <use xlink:href="#m7836effabe" x="87.590083" y="220.403306" style="fill: #c0e9bb; stroke: #c0e9bb"/>
     <use xlink:href="#m7836effabe" x="135.193388" y="220.403306" style="fill: #c0e9bb; stroke: #c0e9bb"/>
     <use xlink:href="#m7836effabe" x="182.796694" y="220.403306" style="fill: #c0e9bb; stroke: #c0e9bb"/>
     <use xlink:href="#m7836effabe" x="230.4" y="220.403306" style="fill: #c0e9bb; stroke: #c0e9bb"/>
     <use xlink:href="#m7836effabe" x="278.003306" y="220.403306" style="fill: #c0e9bb; stroke: #c0e9bb"/>
     <use xlink:href="#m7836effabe" x="325.606612" y="220.403306" style="fill: #c0e9bb; stroke: #c0e9bb"/>
     <use xlink:href="#m7836effabe" x="373.209917" y="220.403306" style="fill: #c0e9bb; stroke: #c0e9bb"/>
     <use xlink:href="#m7836effabe" x="420.813223" y="220.403306" style="fill: #c0e9bb; stroke: #c0e9bb"/>
     <use xlink:href="#m7836effabe" x="87.590083" y="125.196694" style="fill: #c0e9bb; stroke: #c0e9bb"/>
     <use xlink:href="#m7836effabe" x="135.193388" y="125.196694" style="fill: #c0e9bb; stroke: #c0e9bb"/>
     <use xlink:href="#m7836effabe" x="182.796694" y="125.196694" style="fill: #c0e9bb; stroke: #c0e9bb"/>
     <use xlink:href="#m7836effabe" x="230.4" y="125.196694" style="fill: #c0e9bb; stroke: #c0e9bb"/>
     <use xlink:href="#m7836effabe" x="278.003306" y="125.196694" style="fill: #c0e9bb; stroke: #c0e9bb"/>
     <use xlink:href="#m7836effabe" x="325.606612" y="125.196694" style="fill: #c0e9bb; stroke: #c0e9bb"/>
     <use xlink:href="#m7836effabe" x="373.209917" y="125.196694" style="fill: #c0e9bb; stroke: #c0e9bb"/>
     <use xlink:href="#m7836effabe" x="135.193388" y="29.990083" style="fill: #c0e9bb; stroke: #c0e9bb"/>
     <use xlink:href="#m7836effabe" x="182.796694" y="29.990083" style="fill: #c0e9bb; stroke: #c0e9bb"/>
     <use xlink:href="#m7836effabe" x="230.4" y="29.990083" style="fill: #c0e9bb; stroke: #c0e9bb"/>
     <use xlink:href="#m7836effabe" x="278.003306" y="29.990083" style="fill: #c0e9bb; stroke: #c0e9bb"/>
     <use xlink:href="#m7836effabe" x="325.606612" y="29.990083" style="fill: #c0e9bb; stroke: #c0e9bb"/>
    </g>
   </g>
   <g id="text_39">
    <g clip-path="url(#pc3161cc200)">
     <!-- West -->
     <g transform="translate(77.756958 313.338292) scale(0.08 -0.08)">
      <defs>
       <path id="DejaVuSans-57" d="M 213 4666 
L 850 4666 
L 1831 722 
L 2809 4666 
L 3519 4666 
L 4500 722 
L 5478 4666 
L 6119 4666 
L 4947 0 
L 4153 0 
L 3169 4050 
L 2175 0 
L 1381 0 
L 213 4666 
z
" transform="scale(0.015625)"/>
       <path id="DejaVuSans-65" d="M 3597 1894 
L 3597 1613 
L 953 1613 
Q 991 1019 1311 708 
Q 1631 397 2203 397 
Q 2534 397 2845 478 
Q 3156 559 3463 722 
L 3463 178 
Q 3153 47 2828 -22 
Q 2503 -91 2169 -91 
Q 1331 -91 842 396 
Q 353 884 353 1716 
Q 353 2575 817 3079 
Q 1281 3584 2069 3584 
Q 2775 3584 3186 3129 
Q 3597 2675 3597 1894 
z
M 3022 2063 
Q 3016 2534 2758 2815 
Q 2500 3097 2075 3097 
Q 1594 3097 1305 2825 
Q 1016 2553 972 2059 
L 3022 2063 
z
" transform="scale(0.015625)"/>
       <path id="DejaVuSans-73" d="M 2834 3397 
L 2834 2853 
Q 2591 2978 2328 3040 
Q 2066 3103 1784 3103 
Q 1356 3103 1142 2972 
Q 928 2841 928 2578 
Q 928 2378 1081 2264 
Q 1234 2150 1697 2047 
L 1894 2003 
Q 2506 1872 2764 1633 
Q 3022 1394 3022 966 
Q 3022 478 2636 193 
Q 2250 -91 1575 -91 
Q 1294 -91 989 -36 
Q 684 19 347 128 
L 347 722 
Q 666 556 975 473 
Q 1284 391 1588 391 
Q 1994 391 2212 530 
Q 2431 669 2431 922 
Q 2431 1156 2273 1281 
Q 2116 1406 1581 1522 
L 1381 1569 
Q 847 1681 609 1914 
Q 372 2147 372 2553 
Q 372 3047 722 3315 
Q 1072 3584 1716 3584 
Q 2034 3584 2315 3537 
Q 2597 3491 2834 3397 
z
" transform="scale(0.015625)"/>
       <path id="DejaVuSans-74" d="M 1172 4494 
L 1172 3500 
L 2356 3500 
L 2356 3053 
L 1172 3053 
L 1172 1153 
Q 1172 725 1289 603 
Q 1406 481 1766 481 
L 2356 481 
L 2356 0 
L 1766 0 
Q 1100 0 847 248 
Q 594 497 594 1153 
L 594 3053 
L 172 3053 
L 172 3500 
L 594 3500 
L 594 4494 
L 1172 4494 
z
" transform="scale(0.015625)"/>
      </defs>
      <use xlink:href="#DejaVuSans-57"/>
      <use xlink:href="#DejaVuSans-65" transform="translate(93.001953 0)"/>
      <use xlink:href="#DejaVuSans-73" transform="translate(154.525391 0)"/>
      <use xlink:href="#DejaVuSans-74" transform="translate(206.625 0)"/>
     </g>
    </g>
    <g clip-path="url(#pc3161cc200)">
     <!-- Lobby -->
     <g transform="translate(75.537583 322.296542) scale(0.08 -0.08)">
      <defs>
       <path id="DejaVuSans-4c" d="M 628 4666 
L 1259 4666 
L 1259 531 
L 3531 531 
L 3531 0 
L 628 0 
L 628 4666 
z
" transform="scale(0.015625)"/>
       <path id="DejaVuSans-6f" d="M 1959 3097 
Q 1497 3097 1228 2736 
Q 959 2375 959 1747 
Q 959 1119 1226 758 
Q 1494 397 1959 397 
Q 2419 397 2687 759 
Q 2956 1122 2956 1747 
Q 2956 2369 2687 2733 
Q 2419 3097 1959 3097 
z
M 1959 3584 
Q 2709 3584 3137 3096 
Q 3566 2609 3566 1747 
Q 3566 888 3137 398 
Q 2709 -91 1959 -91 
Q 1206 -91 779 398 
Q 353 888 353 1747 
Q 353 2609 779 3096 
Q 1206 3584 1959 3584 
z
" transform="scale(0.015625)"/>
       <path id="DejaVuSans-62" d="M 3116 1747 
Q 3116 2381 2855 2742 
Q 2594 3103 2138 3103 
Q 1681 3103 1420 2742 
Q 1159 2381 1159 1747 
Q 1159 1113 1420 752 
Q 1681 391 2138 391 
Q 2594 391 2855 752 
Q 3116 1113 3116 1747 
z
M 1159 2969 
Q 1341 3281 1617 3432 
Q 1894 3584 2278 3584 
Q 2916 3584 3314 3078 
Q 3713 2572 3713 1747 
Q 3713 922 3314 415 
Q 2916 -91 2278 -91 
Q 1894 -91 1617 61 
Q 1341 213 1159 525 
L 1159 0 
L 581 0 
L 581 4863 
L 1159 4863 
L 1159 2969 
z
" transform="scale(0.015625)"/>
       <path id="DejaVuSans-79" d="M 2059 -325 
Q 1816 -950 1584 -1140 
Q 1353 -1331 966 -1331 
L 506 -1331 
L 506 -850 
L 844 -850 
Q 1081 -850 1212 -737 
Q 1344 -625 1503 -206 
L 1606 56 
L 191 3500 
L 800 3500 
L 1894 763 
L 2988 3500 
L 3597 3500 
L 2059 -325 
z
" transform="scale(0.015625)"/>
      </defs>
      <use xlink:href="#DejaVuSans-4c"/>
      <use xlink:href="#DejaVuSans-6f" transform="translate(53.962891 0)"/>
      <use xlink:href="#DejaVuSans-62" transform="translate(115.144531 0)"/>
      <use xlink:href="#DejaVuSans-62" transform="translate(178.621094 0)"/>
      <use xlink:href="#DejaVuSans-79" transform="translate(242.097656 0)"/>
     </g>
    </g>
   </g>
   <g id="text_40">
    <g clip-path="url(#pc3161cc200)">
     <!-- South -->
     <g transform="translate(123.568388 313.338292) scale(0.08 -0.08)">
      <defs>
       <path id="DejaVuSans-53" d="M 3425 4513 
L 3425 3897 
Q 3066 4069 2747 4153 
Q 2428 4238 2131 4238 
Q 1616 4238 1336 4038 
Q 1056 3838 1056 3469 
Q 1056 3159 1242 3001 
Q 1428 2844 1947 2747 
L 2328 2669 
Q 3034 2534 3370 2195 
Q 3706 1856 3706 1288 
Q 3706 609 3251 259 
Q 2797 -91 1919 -91 
Q 1588 -91 1214 -16 
Q 841 59 441 206 
L 441 856 
Q 825 641 1194 531 
Q 1563 422 1919 422 
Q 2459 422 2753 634 
Q 3047 847 3047 1241 
Q 3047 1584 2836 1778 
Q 2625 1972 2144 2069 
L 1759 2144 
Q 1053 2284 737 2584 
Q 422 2884 422 3419 
Q 422 4038 858 4394 
Q 1294 4750 2059 4750 
Q 2388 4750 2728 4690 
Q 3069 4631 3425 4513 
z
" transform="scale(0.015625)"/>
       <path id="DejaVuSans-75" d="M 544 1381 
L 544 3500 
L 1119 3500 
L 1119 1403 
Q 1119 906 1312 657 
Q 1506 409 1894 409 
Q 2359 409 2629 706 
Q 2900 1003 2900 1516 
L 2900 3500 
L 3475 3500 
L 3475 0 
L 2900 0 
L 2900 538 
Q 2691 219 2414 64 
Q 2138 -91 1772 -91 
Q 1169 -91 856 284 
Q 544 659 544 1381 
z
M 1991 3584 
L 1991 3584 
z
" transform="scale(0.015625)"/>
       <path id="DejaVuSans-68" d="M 3513 2113 
L 3513 0 
L 2938 0 
L 2938 2094 
Q 2938 2591 2744 2837 
Q 2550 3084 2163 3084 
Q 1697 3084 1428 2787 
Q 1159 2491 1159 1978 
L 1159 0 
L 581 0 
L 581 4863 
L 1159 4863 
L 1159 2956 
Q 1366 3272 1645 3428 
Q 1925 3584 2291 3584 
Q 2894 3584 3203 3211 
Q 3513 2838 3513 2113 
z
" transform="scale(0.015625)"/>
      </defs>
      <use xlink:href="#DejaVuSans-53"/>
      <use xlink:href="#DejaVuSans-6f" transform="translate(63.476562 0)"/>
      <use xlink:href="#DejaVuSans-75" transform="translate(124.658203 0)"/>
      <use xlink:href="#DejaVuSans-74" transform="translate(188.037109 0)"/>
      <use xlink:href="#DejaVuSans-68" transform="translate(227.246094 0)"/>
     </g>
    </g>
    <g clip-path="url(#pc3161cc200)">
     <!-- Laundry -->
     <g transform="translate(118.892138 322.296542) scale(0.08 -0.08)">
      <defs>
       <path id="DejaVuSans-61" d="M 2194 1759 
Q 1497 1759 1228 1600 
Q 959 1441 959 1056 
Q 959 750 1161 570 
Q 1363 391 1709 391 
Q 2188 391 2477 730 
Q 2766 1069 2766 1631 
L 2766 1759 
L 2194 1759 
z
M 3341 1997 
L 3341 0 
L 2766 0 
L 2766 531 
Q 2569 213 2275 61 
Q 1981 -91 1556 -91 
Q 1019 -91 701 211 
Q 384 513 384 1019 
Q 384 1609 779 1909 
Q 1175 2209 1959 2209 
L 2766 2209 
L 2766 2266 
Q 2766 2663 2505 2880 
Q 2244 3097 1772 3097 
Q 1472 3097 1187 3025 
Q 903 2953 641 2809 
L 641 3341 
Q 956 3463 1253 3523 
Q 1550 3584 1831 3584 
Q 2591 3584 2966 3190 
Q 3341 2797 3341 1997 
z
" transform="scale(0.015625)"/>
       <path id="DejaVuSans-6e" d="M 3513 2113 
L 3513 0 
L 2938 0 
L 2938 2094 
Q 2938 2591 2744 2837 
Q 2550 3084 2163 3084 
Q 1697 3084 1428 2787 
Q 1159 2491 1159 1978 
L 1159 0 
L 581 0 
L 581 3500 
L 1159 3500 
L 1159 2956 
Q 1366 3272 1645 3428 
Q 1925 3584 2291 3584 
Q 2894 3584 3203 3211 
Q 3513 2838 3513 2113 
z
" transform="scale(0.015625)"/>
       <path id="DejaVuSans-64" d="M 2906 2969 
L 2906 4863 
L 3481 4863 
L 3481 0 
L 2906 0 
L 2906 525 
Q 2725 213 2448 61 
Q 2172 -91 1784 -91 
Q 1150 -91 751 415 
Q 353 922 353 1747 
Q 353 2572 751 3078 
Q 1150 3584 1784 3584 
Q 2172 3584 2448 3432 
Q 2725 3281 2906 2969 
z
M 947 1747 
Q 947 1113 1208 752 
Q 1469 391 1925 391 
Q 2381 391 2643 752 
Q 2906 1113 2906 1747 
Q 2906 2381 2643 2742 
Q 2381 3103 1925 3103 
Q 1469 3103 1208 2742 
Q 947 2381 947 1747 
z
" transform="scale(0.015625)"/>
       <path id="DejaVuSans-72" d="M 2631 2963 
Q 2534 3019 2420 3045 
Q 2306 3072 2169 3072 
Q 1681 3072 1420 2755 
Q 1159 2438 1159 1844 
L 1159 0 
L 581 0 
L 581 3500 
L 1159 3500 
L 1159 2956 
Q 1341 3275 1631 3429 
Q 1922 3584 2338 3584 
Q 2397 3584 2469 3576 
Q 2541 3569 2628 3553 
L 2631 2963 
z
" transform="scale(0.015625)"/>
      </defs>
      <use xlink:href="#DejaVuSans-4c"/>
      <use xlink:href="#DejaVuSans-61" transform="translate(55.712891 0)"/>
      <use xlink:href="#DejaVuSans-75" transform="translate(116.992188 0)"/>
      <use xlink:href="#DejaVuSans-6e" transform="translate(180.371094 0)"/>
      <use xlink:href="#DejaVuSans-64" transform="translate(243.75 0)"/>
      <use xlink:href="#DejaVuSans-72" transform="translate(307.226562 0)"/>
      <use xlink:href="#DejaVuSans-79" transform="translate(348.339844 0)"/>
     </g>
    </g>
   </g>
   <g id="text_41">
    <g clip-path="url(#pc3161cc200)">
     <!-- South -->
     <g transform="translate(171.171694 313.338292) scale(0.08 -0.08)">
      <use xlink:href="#DejaVuSans-53"/>
      <use xlink:href="#DejaVuSans-6f" transform="translate(63.476562 0)"/>
      <use xlink:href="#DejaVuSans-75" transform="translate(124.658203 0)"/>
      <use xlink:href="#DejaVuSans-74" transform="translate(188.037109 0)"/>
      <use xlink:href="#DejaVuSans-68" transform="translate(227.246094 0)"/>
     </g>
    </g>
    <g clip-path="url(#pc3161cc200)">
     <!-- Rec -->
     <g transform="translate(175.536694 322.296542) scale(0.08 -0.08)">
      <defs>
       <path id="DejaVuSans-52" d="M 2841 2188 
Q 3044 2119 3236 1894 
Q 3428 1669 3622 1275 
L 4263 0 
L 3584 0 
L 2988 1197 
Q 2756 1666 2539 1819 
Q 2322 1972 1947 1972 
L 1259 1972 
L 1259 0 
L 628 0 
L 628 4666 
L 2053 4666 
Q 2853 4666 3247 4331 
Q 3641 3997 3641 3322 
Q 3641 2881 3436 2590 
Q 3231 2300 2841 2188 
z
M 1259 4147 
L 1259 2491 
L 2053 2491 
Q 2509 2491 2742 2702 
Q 2975 2913 2975 3322 
Q 2975 3731 2742 3939 
Q 2509 4147 2053 4147 
L 1259 4147 
z
" transform="scale(0.015625)"/>
       <path id="DejaVuSans-63" d="M 3122 3366 
L 3122 2828 
Q 2878 2963 2633 3030 
Q 2388 3097 2138 3097 
Q 1578 3097 1268 2742 
Q 959 2388 959 1747 
Q 959 1106 1268 751 
Q 1578 397 2138 397 
Q 2388 397 2633 464 
Q 2878 531 3122 666 
L 3122 134 
Q 2881 22 2623 -34 
Q 2366 -91 2075 -91 
Q 1284 -91 818 406 
Q 353 903 353 1747 
Q 353 2603 823 3093 
Q 1294 3584 2113 3584 
Q 2378 3584 2631 3529 
Q 2884 3475 3122 3366 
z
" transform="scale(0.015625)"/>
      </defs>
      <use xlink:href="#DejaVuSans-52"/>
      <use xlink:href="#DejaVuSans-65" transform="translate(64.982422 0)"/>
      <use xlink:href="#DejaVuSans-63" transform="translate(126.505859 0)"/>
     </g>
    </g>
   </g>
   <g id="text_42">
    <g clip-path="url(#pc3161cc200)">
     <!-- 022 -->
     <g transform="translate(222.765 317.817417) scale(0.08 -0.08)">
      <use xlink:href="#DejaVuSans-30"/>
      <use xlink:href="#DejaVuSans-32" transform="translate(63.623047 0)"/>
      <use xlink:href="#DejaVuSans-32" transform="translate(127.246094 0)"/>
     </g>
    </g>
   </g>
   <g id="text_43">
    <g clip-path="url(#pc3161cc200)">
     <!-- 025 -->
     <g transform="translate(270.368306 317.817417) scale(0.08 -0.08)">
      <use xlink:href="#DejaVuSans-30"/>
      <use xlink:href="#DejaVuSans-32" transform="translate(63.623047 0)"/>
      <use xlink:href="#DejaVuSans-35" transform="translate(127.246094 0)"/>
     </g>
    </g>
   </g>
   <g id="text_44">
    <g clip-path="url(#pc3161cc200)">
     <!-- 027 -->
     <g transform="translate(317.971612 317.817417) scale(0.08 -0.08)">
      <use xlink:href="#DejaVuSans-30"/>
      <use xlink:href="#DejaVuSans-32" transform="translate(63.623047 0)"/>
      <use xlink:href="#DejaVuSans-37" transform="translate(127.246094 0)"/>
     </g>
    </g>
   </g>
   <g id="text_45">
    <g clip-path="url(#pc3161cc200)">
     <!-- 030 -->
     <g transform="translate(365.574917 317.817417) scale(0.08 -0.08)">
      <use xlink:href="#DejaVuSans-30"/>
      <use xlink:href="#DejaVuSans-33" transform="translate(63.623047 0)"/>
      <use xlink:href="#DejaVuSans-30" transform="translate(127.246094 0)"/>
     </g>
    </g>
   </g>
   <g id="text_46">
    <g clip-path="url(#pc3161cc200)">
     <!-- 187 -->
     <g transform="translate(32.351777 222.610806) scale(0.08 -0.08)">
      <defs>
       <path id="DejaVuSans-38" d="M 2034 2216 
Q 1584 2216 1326 1975 
Q 1069 1734 1069 1313 
Q 1069 891 1326 650 
Q 1584 409 2034 409 
Q 2484 409 2743 651 
Q 3003 894 3003 1313 
Q 3003 1734 2745 1975 
Q 2488 2216 2034 2216 
z
M 1403 2484 
Q 997 2584 770 2862 
Q 544 3141 544 3541 
Q 544 4100 942 4425 
Q 1341 4750 2034 4750 
Q 2731 4750 3128 4425 
Q 3525 4100 3525 3541 
Q 3525 3141 3298 2862 
Q 3072 2584 2669 2484 
Q 3125 2378 3379 2068 
Q 3634 1759 3634 1313 
Q 3634 634 3220 271 
Q 2806 -91 2034 -91 
Q 1263 -91 848 271 
Q 434 634 434 1313 
Q 434 1759 690 2068 
Q 947 2378 1403 2484 
z
M 1172 3481 
Q 1172 3119 1398 2916 
Q 1625 2713 2034 2713 
Q 2441 2713 2670 2916 
Q 2900 3119 2900 3481 
Q 2900 3844 2670 4047 
Q 2441 4250 2034 4250 
Q 1625 4250 1398 4047 
Q 1172 3844 1172 3481 
z
" transform="scale(0.015625)"/>
      </defs>
      <use xlink:href="#DejaVuSans-31"/>
      <use xlink:href="#DejaVuSans-38" transform="translate(63.623047 0)"/>
      <use xlink:href="#DejaVuSans-37" transform="translate(127.246094 0)"/>
     </g>
    </g>
   </g>
   <g id="text_47">
    <g clip-path="url(#pc3161cc200)">
     <!-- 196 -->
     <g transform="translate(79.955083 222.610806) scale(0.08 -0.08)">
      <use xlink:href="#DejaVuSans-31"/>
      <use xlink:href="#DejaVuSans-39" transform="translate(63.623047 0)"/>
      <use xlink:href="#DejaVuSans-36" transform="translate(127.246094 0)"/>
     </g>
    </g>
   </g>
   <g id="text_48">
    <g clip-path="url(#pc3161cc200)">
     <!-- Old -->
     <g transform="translate(128.394013 218.131681) scale(0.08 -0.08)">
      <defs>
       <path id="DejaVuSans-4f" d="M 2522 4238 
Q 1834 4238 1429 3725 
Q 1025 3213 1025 2328 
Q 1025 1447 1429 934 
Q 1834 422 2522 422 
Q 3209 422 3611 934 
Q 4013 1447 4013 2328 
Q 4013 3213 3611 3725 
Q 3209 4238 2522 4238 
z
M 2522 4750 
Q 3503 4750 4090 4092 
Q 4678 3434 4678 2328 
Q 4678 1225 4090 567 
Q 3503 -91 2522 -91 
Q 1538 -91 948 565 
Q 359 1222 359 2328 
Q 359 3434 948 4092 
Q 1538 4750 2522 4750 
z
" transform="scale(0.015625)"/>
       <path id="DejaVuSans-6c" d="M 603 4863 
L 1178 4863 
L 1178 0 
L 603 0 
L 603 4863 
z
" transform="scale(0.015625)"/>
      </defs>
      <use xlink:href="#DejaVuSans-4f"/>
      <use xlink:href="#DejaVuSans-6c" transform="translate(78.710938 0)"/>
      <use xlink:href="#DejaVuSans-64" transform="translate(106.494141 0)"/>
     </g>
    </g>
    <g clip-path="url(#pc3161cc200)">
     <!-- MAP -->
     <g transform="translate(126.594013 227.089931) scale(0.08 -0.08)">
      <defs>
       <path id="DejaVuSans-4d" d="M 628 4666 
L 1569 4666 
L 2759 1491 
L 3956 4666 
L 4897 4666 
L 4897 0 
L 4281 0 
L 4281 4097 
L 3078 897 
L 2444 897 
L 1241 4097 
L 1241 0 
L 628 0 
L 628 4666 
z
" transform="scale(0.015625)"/>
       <path id="DejaVuSans-41" d="M 2188 4044 
L 1331 1722 
L 3047 1722 
L 2188 4044 
z
M 1831 4666 
L 2547 4666 
L 4325 0 
L 3669 0 
L 3244 1197 
L 1141 1197 
L 716 0 
L 50 0 
L 1831 4666 
z
" transform="scale(0.015625)"/>
       <path id="DejaVuSans-50" d="M 1259 4147 
L 1259 2394 
L 2053 2394 
Q 2494 2394 2734 2622 
Q 2975 2850 2975 3272 
Q 2975 3691 2734 3919 
Q 2494 4147 2053 4147 
L 1259 4147 
z
M 628 4666 
L 2053 4666 
Q 2838 4666 3239 4311 
Q 3641 3956 3641 3272 
Q 3641 2581 3239 2228 
Q 2838 1875 2053 1875 
L 1259 1875 
L 1259 0 
L 628 0 
L 628 4666 
z
" transform="scale(0.015625)"/>
      </defs>
      <use xlink:href="#DejaVuSans-4d"/>
      <use xlink:href="#DejaVuSans-41" transform="translate(86.279297 0)"/>
      <use xlink:href="#DejaVuSans-50" transform="translate(154.6875 0)"/>
     </g>
    </g>
   </g>
   <g id="text_49">
    <g clip-path="url(#pc3161cc200)">
     <!-- Princess -->
     <g transform="translate(166.336069 218.131681) scale(0.08 -0.08)">
      <defs>
       <path id="DejaVuSans-69" d="M 603 3500 
L 1178 3500 
L 1178 0 
L 603 0 
L 603 3500 
z
M 603 4863 
L 1178 4863 
L 1178 4134 
L 603 4134 
L 603 4863 
z
" transform="scale(0.015625)"/>
      </defs>
      <use xlink:href="#DejaVuSans-50"/>
      <use xlink:href="#DejaVuSans-72" transform="translate(58.552734 0)"/>
      <use xlink:href="#DejaVuSans-69" transform="translate(99.666016 0)"/>
      <use xlink:href="#DejaVuSans-6e" transform="translate(127.449219 0)"/>
      <use xlink:href="#DejaVuSans-63" transform="translate(190.828125 0)"/>
      <use xlink:href="#DejaVuSans-65" transform="translate(245.808594 0)"/>
      <use xlink:href="#DejaVuSans-73" transform="translate(307.332031 0)"/>
      <use xlink:href="#DejaVuSans-73" transform="translate(359.431641 0)"/>
     </g>
    </g>
    <g clip-path="url(#pc3161cc200)">
     <!-- Stairs -->
     <g transform="translate(171.398569 227.089931) scale(0.08 -0.08)">
      <use xlink:href="#DejaVuSans-53"/>
      <use xlink:href="#DejaVuSans-74" transform="translate(63.476562 0)"/>
      <use xlink:href="#DejaVuSans-61" transform="translate(102.685547 0)"/>
      <use xlink:href="#DejaVuSans-69" transform="translate(163.964844 0)"/>
      <use xlink:href="#DejaVuSans-72" transform="translate(191.748047 0)"/>
      <use xlink:href="#DejaVuSans-73" transform="translate(232.861328 0)"/>
     </g>
    </g>
   </g>
   <g id="text_50">
    <g clip-path="url(#pc3161cc200)">
     <!-- 117 -->
     <g transform="translate(222.765 222.610806) scale(0.08 -0.08)">
      <use xlink:href="#DejaVuSans-31"/>
      <use xlink:href="#DejaVuSans-31" transform="translate(63.623047 0)"/>
      <use xlink:href="#DejaVuSans-37" transform="translate(127.246094 0)"/>
     </g>
    </g>
   </g>
   <g id="text_51">
    <g clip-path="url(#pc3161cc200)">
     <!-- 120 -->
     <g transform="translate(270.368306 222.610806) scale(0.08 -0.08)">
      <use xlink:href="#DejaVuSans-31"/>
      <use xlink:href="#DejaVuSans-32" transform="translate(63.623047 0)"/>
      <use xlink:href="#DejaVuSans-30" transform="translate(127.246094 0)"/>
     </g>
    </g>
   </g>
   <g id="text_52">
    <g clip-path="url(#pc3161cc200)">
     <!-- 122 -->
     <g transform="translate(317.971612 222.610806) scale(0.08 -0.08)">
      <use xlink:href="#DejaVuSans-31"/>
      <use xlink:href="#DejaVuSans-32" transform="translate(63.623047 0)"/>
      <use xlink:href="#DejaVuSans-32" transform="translate(127.246094 0)"/>
     </g>
    </g>
   </g>
   <g id="text_53">
    <g clip-path="url(#pc3161cc200)">
     <!-- 126 -->
     <g transform="translate(365.574917 222.610806) scale(0.08 -0.08)">
      <use xlink:href="#DejaVuSans-31"/>
      <use xlink:href="#DejaVuSans-32" transform="translate(63.623047 0)"/>
      <use xlink:href="#DejaVuSans-36" transform="translate(127.246094 0)"/>
     </g>
    </g>
   </g>
   <g id="text_54">
    <g clip-path="url(#pc3161cc200)">
     <!-- 130 -->
     <g transform="translate(413.178223 222.610806) scale(0.08 -0.08)">
      <use xlink:href="#DejaVuSans-31"/>
      <use xlink:href="#DejaVuSans-33" transform="translate(63.623047 0)"/>
      <use xlink:href="#DejaVuSans-30" transform="translate(127.246094 0)"/>
     </g>
    </g>
   </g>
   <g id="text_55">
    <g clip-path="url(#pc3161cc200)">
     <!-- 287 -->
     <g transform="translate(79.955083 127.404194) scale(0.08 -0.08)">
      <use xlink:href="#DejaVuSans-32"/>
      <use xlink:href="#DejaVuSans-38" transform="translate(63.623047 0)"/>
      <use xlink:href="#DejaVuSans-37" transform="translate(127.246094 0)"/>
     </g>
    </g>
   </g>
   <g id="text_56">
    <g clip-path="url(#pc3161cc200)">
     <!-- 296 -->
     <g transform="translate(127.558388 127.404194) scale(0.08 -0.08)">
      <use xlink:href="#DejaVuSans-32"/>
      <use xlink:href="#DejaVuSans-39" transform="translate(63.623047 0)"/>
      <use xlink:href="#DejaVuSans-36" transform="translate(127.246094 0)"/>
     </g>
    </g>
   </g>
   <g id="text_57">
    <g clip-path="url(#pc3161cc200)">
     <!-- 201 -->
     <g transform="translate(175.161694 127.404194) scale(0.08 -0.08)">
      <use xlink:href="#DejaVuSans-32"/>
      <use xlink:href="#DejaVuSans-30" transform="translate(63.623047 0)"/>
      <use xlink:href="#DejaVuSans-31" transform="translate(127.246094 0)"/>
     </g>
    </g>
   </g>
   <g id="text_58">
    <g clip-path="url(#pc3161cc200)">
     <!-- 212 -->
     <g transform="translate(222.765 127.404194) scale(0.08 -0.08)">
      <use xlink:href="#DejaVuSans-32"/>
      <use xlink:href="#DejaVuSans-31" transform="translate(63.623047 0)"/>
      <use xlink:href="#DejaVuSans-32" transform="translate(127.246094 0)"/>
     </g>
    </g>
   </g>
   <g id="text_59">
    <g clip-path="url(#pc3161cc200)">
     <!-- 221 -->
     <g transform="translate(270.368306 127.404194) scale(0.08 -0.08)">
      <use xlink:href="#DejaVuSans-32"/>
      <use xlink:href="#DejaVuSans-32" transform="translate(63.623047 0)"/>
      <use xlink:href="#DejaVuSans-31" transform="translate(127.246094 0)"/>
     </g>
    </g>
   </g>
   <g id="text_60">
    <g clip-path="url(#pc3161cc200)">
     <!-- 226 -->
     <g transform="translate(317.971612 127.404194) scale(0.08 -0.08)">
      <use xlink:href="#DejaVuSans-32"/>
      <use xlink:href="#DejaVuSans-32" transform="translate(63.623047 0)"/>
      <use xlink:href="#DejaVuSans-36" transform="translate(127.246094 0)"/>
     </g>
    </g>
   </g>
   <g id="text_61">
    <g clip-path="url(#pc3161cc200)">
     <!-- 230 -->
     <g transform="translate(365.574917 127.404194) scale(0.08 -0.08)">
      <use xlink:href="#DejaVuSans-32"/>
      <use xlink:href="#DejaVuSans-33" transform="translate(63.623047 0)"/>
      <use xlink:href="#DejaVuSans-30" transform="translate(127.246094 0)"/>
     </g>
    </g>
   </g>
   <g id="text_62">
    <g clip-path="url(#pc3161cc200)">
     <!-- 387 -->
     <g transform="translate(127.558388 32.197583) scale(0.08 -0.08)">
      <use xlink:href="#DejaVuSans-33"/>
      <use xlink:href="#DejaVuSans-38" transform="translate(63.623047 0)"/>
      <use xlink:href="#DejaVuSans-37" transform="translate(127.246094 0)"/>
     </g>
    </g>
   </g>
   <g id="text_63">
    <g clip-path="url(#pc3161cc200)">
     <!-- 301 -->
     <g transform="translate(175.161694 32.197583) scale(0.08 -0.08)">
      <use xlink:href="#DejaVuSans-33"/>
      <use xlink:href="#DejaVuSans-30" transform="translate(63.623047 0)"/>
      <use xlink:href="#DejaVuSans-31" transform="translate(127.246094 0)"/>
     </g>
    </g>
   </g>
   <g id="text_64">
    <g clip-path="url(#pc3161cc200)">
     <!-- 312 -->
     <g transform="translate(222.765 32.197583) scale(0.08 -0.08)">
      <use xlink:href="#DejaVuSans-33"/>
      <use xlink:href="#DejaVuSans-31" transform="translate(63.623047 0)"/>
      <use xlink:href="#DejaVuSans-32" transform="translate(127.246094 0)"/>
     </g>
    </g>
   </g>
   <g id="text_65">
    <g clip-path="url(#pc3161cc200)">
     <!-- 321 -->
     <g transform="translate(270.368306 32.197583) scale(0.08 -0.08)">
      <use xlink:href="#DejaVuSans-33"/>
      <use xlink:href="#DejaVuSans-32" transform="translate(63.623047 0)"/>
      <use xlink:href="#DejaVuSans-31" transform="translate(127.246094 0)"/>
     </g>
    </g>
   </g>
   <g id="text_66">
    <g clip-path="url(#pc3161cc200)">
     <!-- 325 -->
     <g transform="translate(317.971612 32.197583) scale(0.08 -0.08)">
      <use xlink:href="#DejaVuSans-33"/>
      <use xlink:href="#DejaVuSans-32" transform="translate(63.623047 0)"/>
      <use xlink:href="#DejaVuSans-35" transform="translate(127.246094 0)"/>
     </g>
    </g>
   </g>
  </g>
 </g>
 <defs>
  <clipPath id="pc3161cc200">
   <rect x="0" y="0" width="460.8" height="345.6"/>
  </clipPath>
 </defs>
</svg>
